HIERARCHY
ROOT Hips
{
	OFFSET 0.000000 0.794594 0.001814
	CHANNELS 6 Xposition Yposition Zposition Zrotation Xrotation Yrotation
	JOINT Spine
	{
		OFFSET -0.000000 0.051920 0.010783
		CHANNELS 3 Zrotation Xrotation Yrotation
		JOINT Chest
		{
			OFFSET 0.000000 0.111800 0.002643
			CHANNELS 3 Zrotation Xrotation Yrotation
			JOINT UpperChest
			{
				OFFSET 0.000011 0.124994 0.000757
				CHANNELS 3 Zrotation Xrotation Yrotation
				JOINT Neck
				{
					OFFSET 0.000112 0.117645 -0.020286
					CHANNELS 3 Zrotation Xrotation Yrotation
					JOINT Head
					{
						OFFSET 0.000009 0.074358 -0.000161
						CHANNELS 3 Zrotation Xrotation Yrotation
						JOINT LeftEye
						{
							OFFSET 0.019846 0.051735 0.040589
							CHANNELS 3 Zrotation Xrotation Yrotation
							End Site
							{
								OFFSET -0.000199 0.054090 0.042333
							}
						}
						JOINT RightEye
						{
							OFFSET -0.020226 0.051740 0.040395
							CHANNELS 3 Zrotation Xrotation Yrotation
							End Site
							{
								OFFSET -0.000199 0.054090 0.042333
							}
						}
					}
				}
				JOINT LeftShoulder
				{
					OFFSET 0.022481 0.089795 -0.017340
					CHANNELS 3 Zrotation Xrotation Yrotation
					JOINT LeftUpperArm
					{
						OFFSET 0.087730 -0.000010 0.000425
						CHANNELS 3 Zrotation Xrotation Yrotation
						JOINT LeftLowerArm
						{
							OFFSET 0.210364 0.001461 0.000713
							CHANNELS 3 Zrotation Xrotation Yrotation
							JOINT LeftHand
							{
								OFFSET 0.205444 0.001377 0.000711
								CHANNELS 3 Zrotation Xrotation Yrotation
								JOINT LeftIndexProximal
								{
									OFFSET 0.064499 0.001525 0.020305
									CHANNELS 3 Zrotation Xrotation Yrotation
									JOINT LeftIndexIntermediate
									{
										OFFSET 0.033222 0.000012 0.000212
										CHANNELS 3 Zrotation Xrotation Yrotation
										JOINT LeftIndexDistal
										{
											OFFSET 0.020455 0.000007 0.000130
											CHANNELS 3 Zrotation Xrotation Yrotation
											End Site
											{
												OFFSET 0.020455 0.000007 0.000130
											}
										}
									}
								}
								JOINT LeftLittleProximal
								{
									OFFSET 0.062854 -0.001936 -0.027845
									CHANNELS 3 Zrotation Xrotation Yrotation
									JOINT LeftLittleIntermediate
									{
										OFFSET 0.031399 0.000011 0.000200
										CHANNELS 3 Zrotation Xrotation Yrotation
										JOINT LeftLittleDistal
										{
											OFFSET 0.018096 0.000006 0.000115
											CHANNELS 3 Zrotation Xrotation Yrotation
											End Site
											{
												OFFSET 0.018096 0.000006 0.000115
											}
										}
									}
								}
								JOINT LeftMiddleProximal
								{
									OFFSET 0.066609 0.003801 0.003549
									CHANNELS 3 Zrotation Xrotation Yrotation
									JOINT LeftMiddleIntermediate
									{
										OFFSET 0.037005 0.000013 0.000236
										CHANNELS 3 Zrotation Xrotation Yrotation
										JOINT LeftMiddleDistal
										{
											OFFSET 0.022829 0.000008 0.000145
											CHANNELS 3 Zrotation Xrotation Yrotation
											End Site
											{
												OFFSET 0.022829 0.000008 0.000145
											}
										}
									}
								}
								JOINT LeftRingProximal
								{
									OFFSET 0.066900 0.003343 -0.012193
									CHANNELS 3 Zrotation Xrotation Yrotation
									JOINT LeftRingIntermediate
									{
										OFFSET 0.034327 0.000012 0.000219
										CHANNELS 3 Zrotation Xrotation Yrotation
										JOINT LeftRingDistal
										{
											OFFSET 0.019811 0.000007 0.000126
											CHANNELS 3 Zrotation Xrotation Yrotation
											End Site
											{
												OFFSET 0.019811 0.000007 0.000126
											}
										}
									}
								}
								JOINT LeftThumbProximal
								{
									OFFSET 0.001848 -0.006641 0.017858
									CHANNELS 3 Zrotation Xrotation Yrotation
									JOINT LeftThumbIntermediate
									{
										OFFSET 0.030326 -0.003605 0.035110
										CHANNELS 3 Zrotation Xrotation Yrotation
										JOINT LeftThumbDistal
										{
											OFFSET 0.019149 -0.004135 0.020870
											CHANNELS 3 Zrotation Xrotation Yrotation
											End Site
											{
												OFFSET 0.019149 -0.004134 0.020871
											}
										}
									}
								}
							}
						}
					}
				}
				JOINT RightShoulder
				{
					OFFSET -0.022291 0.089803 -0.017557
					CHANNELS 3 Zrotation Xrotation Yrotation
					JOINT RightUpperArm
					{
						OFFSET -0.087729 0.000010 -0.000425
						CHANNELS 3 Zrotation Xrotation Yrotation
						JOINT RightLowerArm
						{
							OFFSET -0.210401 0.000107 -0.000861
							CHANNELS 3 Zrotation Xrotation Yrotation
							JOINT RightHand
							{
								OFFSET -0.205447 0.000040 -0.000840
								CHANNELS 3 Zrotation Xrotation Yrotation
								JOINT RightIndexProximal
								{
									OFFSET -0.064690 0.001511 0.019688
									CHANNELS 3 Zrotation Xrotation Yrotation
									JOINT RightIndexIntermediate
									{
										OFFSET -0.033222 0.000005 -0.000106
										CHANNELS 3 Zrotation Xrotation Yrotation
										JOINT RightIndexDistal
										{
											OFFSET -0.020455 0.000003 -0.000065
											CHANNELS 3 Zrotation Xrotation Yrotation
											End Site
											{
												OFFSET -0.020455 0.000003 -0.000065
											}
										}
									}
								}
								JOINT RightLittleProximal
								{
									OFFSET -0.062585 -0.001949 -0.028444
									CHANNELS 3 Zrotation Xrotation Yrotation
									JOINT RightLittleIntermediate
									{
										OFFSET -0.031399 0.000005 -0.000100
										CHANNELS 3 Zrotation Xrotation Yrotation
										JOINT RightLittleDistal
										{
											OFFSET -0.018096 0.000003 -0.000057
											CHANNELS 3 Zrotation Xrotation Yrotation
											End Site
											{
												OFFSET -0.018096 0.000003 -0.000057
											}
										}
									}
								}
								JOINT RightMiddleProximal
								{
									OFFSET -0.066640 0.003787 0.002913
									CHANNELS 3 Zrotation Xrotation Yrotation
									JOINT RightMiddleIntermediate
									{
										OFFSET -0.037006 0.000005 -0.000118
										CHANNELS 3 Zrotation Xrotation Yrotation
										JOINT RightMiddleDistal
										{
											OFFSET -0.022829 0.000003 -0.000072
											CHANNELS 3 Zrotation Xrotation Yrotation
											End Site
											{
												OFFSET -0.022829 0.000003 -0.000072
											}
										}
									}
								}
								JOINT RightRingProximal
								{
									OFFSET -0.066782 0.003329 -0.012831
									CHANNELS 3 Zrotation Xrotation Yrotation
									JOINT RightRingIntermediate
									{
										OFFSET -0.034327 0.000005 -0.000109
										CHANNELS 3 Zrotation Xrotation Yrotation
										JOINT RightRingDistal
										{
											OFFSET -0.019810 0.000003 -0.000063
											CHANNELS 3 Zrotation Xrotation Yrotation
											End Site
											{
												OFFSET -0.019810 0.000003 -0.000063
											}
										}
									}
								}
								JOINT RightThumbProximal
								{
									OFFSET -0.002017 -0.006641 0.017839
									CHANNELS 3 Zrotation Xrotation Yrotation
									JOINT RightThumbIntermediate
									{
										OFFSET -0.032510 -0.005699 0.032803
										CHANNELS 3 Zrotation Xrotation Yrotation
										JOINT RightThumbDistal
										{
											OFFSET -0.020784 -0.005081 0.019013
											CHANNELS 3 Zrotation Xrotation Yrotation
											End Site
											{
												OFFSET -0.020784 -0.005081 0.019013
											}
										}
									}
								}
							}
						}
					}
				}
			}
		}
	}
	JOINT LeftUpperLeg
	{
		OFFSET 0.077122 -0.039594 -0.005714
		CHANNELS 3 Zrotation Xrotation Yrotation
		JOINT LeftLowerLeg
		{
			OFFSET 0.000000 -0.343087 0.003694
			CHANNELS 3 Zrotation Xrotation Yrotation
			JOINT LeftFoot
			{
				OFFSET 0.000000 -0.401029 -0.031329
				CHANNELS 3 Zrotation Xrotation Yrotation
				JOINT LeftToes
				{
					OFFSET 0.000000 -0.001594 0.127952
					CHANNELS 3 Zrotation Xrotation Yrotation
					End Site
					{
						OFFSET -0.000000 -0.001594 0.127952
					}
				}
			}
		}
	}
	JOINT RightUpperLeg
	{
		OFFSET -0.077122 -0.039594 -0.005714
		CHANNELS 3 Zrotation Xrotation Yrotation
		JOINT RightLowerLeg
		{
			OFFSET -0.000000 -0.343087 0.003695
			CHANNELS 3 Zrotation Xrotation Yrotation
			JOINT RightFoot
			{
				OFFSET 0.000000 -0.401029 -0.031326
				CHANNELS 3 Zrotation Xrotation Yrotation
				JOINT RightToes
				{
					OFFSET 0.000000 -0.001593 0.127952
					CHANNELS 3 Zrotation Xrotation Yrotation
					End Site
					{
						OFFSET -0.000000 -0.001593 0.127952
					}
				}
			}
		}
	}
}
MOTION
Frames: 4
Frame Time: 0.016667
0.000492 0.791783 0.013991 -5.082843 2.677903 -5.732251 -1.359657 1.935886 1.982412 4.058971 -3.566464 1.889586 2.624033 -4.250530 2.274461 -5.054839 -2.341316 -1.469653 5.971625 1.545958 7.535309 1.520824 -2.957073 4.025716 0.683133 -2.999696 1.807247 -4.923542 -0.059658 -0.687548 -77.960367 2.174711 23.720315 0.466561 -1.048874 -22.716248 -3.784757 -20.655576 -3.709245 -3.690484 4.076155 0.576245 -6.229200 1.482481 -1.148106 -7.851191 -0.281501 -0.238255 -27.068868 3.106164 3.175880 -35.971065 0.051028 0.017027 -33.563013 0.048319 0.015153 -8.030539 3.942722 1.994411 -20.155835 0.030165 0.005532 -16.517491 0.024902 0.003780 -12.991864 3.763376 2.328055 -29.706176 0.043388 0.011759 -22.217226 0.033087 0.006713 5.842757 -3.720428 23.577647 -9.602708 4.581001 19.616279 -7.502248 3.546100 16.061840 3.472156 -0.061163 0.504257 54.531844 29.522635 26.490820 1.453795 -3.099848 141.337951 1.145325 -4.939216 25.845272 6.128720 4.684854 2.996246 0.006095 1.937167 0.807754 -9.872840 0.394564 -0.241441 86.418531 -0.989410 2.242566 90.167076 0.095119 -0.095841 90.418761 0.095151 -0.096619 60.004954 3.179251 -8.957639 63.474649 0.085431 -0.052832 63.230879 0.085219 -0.052482 69.908837 0.184398 -4.467783 72.724849 0.091151 -0.067152 73.182888 0.091357 -0.067828 -2.176988 -1.364350 -24.791772 -0.000015 0.000090 -0.000317 3.422678 2.460413 -56.764603 3.987565 -11.650274 -8.406988 0.003097 21.345501 0.033858 -4.699670 -9.316270 1.768183 -0.000000 0.000000 0.000001 4.211501 0.891582 24.359163 0.000758 5.158492 0.009460 6.125105 -1.412494 -2.762426 0.000000 -0.000002 0.000001 
0.000511 0.791785 0.013992 -5.089775 2.661568 -5.734226 -1.351817 1.922567 1.979631 4.058819 -3.571497 1.889172 2.624756 -4.255551 2.273544 -5.055236 -2.347693 -1.469928 5.969938 1.444519 7.518208 1.520835 -2.957107 4.025726 0.683134 -2.999722 1.807247 -4.923535 -0.059654 -0.687559 -77.958987 2.166672 23.730623 0.464890 -1.048672 -22.643643 -3.752427 -20.671815 -3.659829 -3.690481 4.076137 0.576241 -6.229191 1.482483 -1.148108 -7.851215 -0.281492 -0.238258 -27.068852 3.106159 3.175867 -35.971048 0.051029 0.017028 -33.563017 0.048316 0.015141 -8.030542 3.942695 1.994413 -20.155823 0.030177 0.005535 -16.517508 0.024898 0.003771 -12.991859 3.763371 2.328052 -29.706176 0.043382 0.011758 -22.217236 0.033089 0.006707 5.842747 -3.720443 23.577646 -9.602702 4.580992 19.616281 -7.502241 3.546110 16.061837 3.472156 -0.061160 0.504251 54.509015 29.518117 26.577714 1.454027 -3.099798 141.340547 1.150735 -4.929287 25.828482 6.128739 4.684849 2.996252 0.006071 1.937177 0.807759 -9.872842 0.394567 -0.241445 86.418572 -0.989410 2.242576 90.167076 0.095127 -0.095846 90.418741 0.095145 -0.096625 60.004974 3.179262 -8.957633 63.474628 0.085416 -0.052838 63.230866 0.085231 -0.052486 69.908858 0.184403 -4.467771 72.724849 0.091143 -0.067163 73.182888 0.091361 -0.067832 -2.177005 -1.364358 -24.791756 -0.000011 0.000102 -0.000321 3.422714 2.460420 -56.764596 3.991081 -11.636428 -8.407442 0.002949 21.352107 0.033850 -4.698404 -9.319545 1.769623 -0.000000 -0.000000 -0.000001 4.211691 0.917062 24.359228 0.000955 5.141791 0.009527 6.125951 -1.405505 -2.762083 0.000001 -0.000001 -0.000001 
0.000529 0.791786 0.013992 -5.096789 2.645276 -5.736220 -1.343748 1.909221 1.976913 4.058660 -3.576525 1.888757 2.625483 -4.260574 2.272627 -5.055509 -2.354295 -1.470200 5.968670 1.343819 7.501086 1.520736 -2.956878 4.025686 0.683043 -2.999522 1.807206 -4.923542 -0.059656 -0.687554 -77.957450 2.158463 23.741162 0.463293 -1.048490 -22.572141 -3.720122 -20.688050 -3.610286 -3.690457 4.076141 0.576237 -6.229183 1.482487 -1.148104 -7.851200 -0.281490 -0.238258 -27.068846 3.106165 3.175869 -35.971085 0.051018 0.017033 -33.563017 0.048326 0.015149 -8.030545 3.942701 1.994412 -20.155834 0.030179 0.005544 -16.517513 0.024892 0.003771 -12.991848 3.763373 2.328046 -29.706176 0.043381 0.011761 -22.217221 0.033090 0.006710 5.842785 -3.720428 23.577658 -9.602707 4.580997 19.616278 -7.502242 3.546089 16.061849 3.472150 -0.061164 0.504252 54.486403 29.514098 26.664456 1.454339 -3.099726 141.343238 1.156061 -4.919436 25.811661 6.128719 4.684850 2.996246 0.006069 1.937175 0.807756 -9.872821 0.394564 -0.241441 86.418531 -0.989417 2.242570 90.167083 0.095118 -0.095852 90.418734 0.095138 -0.096617 60.004988 3.179243 -8.957643 63.474580 0.085434 -0.052849 63.230900 0.085227 -0.052485 69.908830 0.184407 -4.467781 72.724849 0.091151 -0.067156 73.182902 0.091356 -0.067831 -2.177019 -1.364355 -24.791741 0.000001 0.000092 -0.000329 3.422692 2.460423 -56.764589 3.994837 -11.621295 -8.407832 0.002869 21.357177 0.033857 -4.697136 -9.322600 1.771057 0.000000 0.000000 0.000000 4.211639 0.944196 24.359357 0.000743 5.122701 0.009595 6.126813 -1.397753 -2.761851 -0.000000 -0.000001 -0.000001 
0.000547 0.791786 0.013992 -5.103907 2.630663 -5.739513 -1.336576 1.895423 1.970795 4.058496 -3.581590 1.888282 2.626112 -4.265619 2.271580 -5.055237 -2.360854 -1.470289 5.978821 1.233521 7.485100 1.520715 -2.957227 4.025742 0.683018 -2.999833 1.807273 -4.923534 -0.059652 -0.687556 -77.953168 2.141377 23.753106 0.461802 -1.048268 -22.505647 -3.692930 -20.703316 -3.565200 -3.690494 4.076143 0.576241 -6.229193 1.482486 -1.148101 -7.851200 -0.281494 -0.238263 -27.068852 3.106170 3.175873 -35.971061 0.051027 0.017033 -33.563007 0.048327 0.015142 -8.030535 3.942713 1.994411 -20.155835 0.030173 0.005530 -16.517515 0.024899 0.003779 -12.991847 3.763374 2.328044 -29.706152 0.043383 0.011763 -22.217234 0.033085 0.006711 5.842767 -3.720444 23.577656 -9.602721 4.580985 19.616283 -7.502241 3.546104 16.061852 3.472163 -0.061159 0.504256 54.463201 29.515658 26.749282 1.455056 -3.099520 141.352937 1.157950 -4.917522 25.789710 6.128738 4.684847 2.996244 0.006079 1.937189 0.807753 -9.872840 0.394548 -0.241442 86.418565 -0.989422 2.242562 90.167042 0.095122 -0.095856 90.418741 0.095146 -0.096635 60.004967 3.179251 -8.957647 63.474628 0.085429 -0.052832 63.230866 0.085216 -0.052486 69.908858 0.184399 -4.467785 72.724849 0.091149 -0.067156 73.182868 0.091356 -0.067836 -2.177005 -1.364338 -24.791756 -0.000004 0.000075 -0.000334 3.422682 2.460419 -56.764599 3.999239 -11.605296 -8.406665 0.003158 21.360602 0.033837 -4.695956 -9.326433 1.772345 -0.000000 0.000000 0.000001 4.212520 0.967475 24.360780 0.000786 5.107171 0.009670 6.127715 -1.391183 -2.761413 -0.000000 -0.000000 0.000000 
